<svg width="132" height="18" viewBox="0 0 132 18" fill="none" xmlns="http://www.w3.org/2000/svg">
<path d="M131.254 0.5V4.724H127.425V17H122.146V4.724H118.318V0.5H131.254Z" fill="#9F63F3"/>
<path d="M103.613 16.714L104.361 12.358C105.974 12.754 107.434 12.952 108.739 12.952C109.399 12.952 109.978 12.9447 110.477 12.93C110.99 12.9007 111.445 12.8567 111.841 12.798V11.478L109.465 11.28C108.394 11.1773 107.5 11.0013 106.781 10.752C106.062 10.5027 105.483 10.1653 105.043 9.74C104.618 9.3 104.31 8.77934 104.119 8.178C103.943 7.562 103.855 6.84334 103.855 6.022C103.855 4.89267 103.972 3.954 104.207 3.206C104.442 2.44334 104.816 1.83467 105.329 1.38C105.842 0.91067 106.502 0.58067 107.309 0.390003C108.13 0.199337 109.128 0.104004 110.301 0.104004C112.633 0.104004 114.745 0.324004 116.637 0.764003L115.977 4.988C114.334 4.724 113.022 4.592 112.039 4.592C111.056 4.592 110.22 4.636 109.531 4.724V6.022L111.423 6.198C112.582 6.31534 113.55 6.51334 114.327 6.792C115.104 7.056 115.728 7.408 116.197 7.848C116.681 8.288 117.018 8.80867 117.209 9.41C117.414 10.0113 117.517 10.7007 117.517 11.478C117.517 12.5927 117.37 13.5313 117.077 14.294C116.784 15.0567 116.432 15.636 116.021 16.032C115.684 16.3547 115.266 16.6113 114.767 16.802C114.268 16.978 113.74 17.11 113.183 17.198C112.626 17.286 112.061 17.3373 111.489 17.352C110.932 17.3813 110.426 17.396 109.971 17.396C108.827 17.396 107.727 17.3373 106.671 17.22C105.615 17.1027 104.596 16.934 103.613 16.714Z" fill="#9F63F3"/>
<path d="M100.847 6.946V10.774H95.5667V12.776H102.035V17H90.2867V0.5H101.903L101.243 4.724H95.5667V6.946H100.847Z" fill="#9F63F3"/>
<path d="M87.6368 6.946V10.884H83.1488V17H77.8688V0.5H88.6928L88.0328 4.724H83.1488V6.946H87.6368Z" fill="#9F63F3"/>
<path d="M67.5967 9.828H67.4867V17H62.2067V0.5H67.4867V7.232H67.5967C67.6113 6.968 67.6407 6.73333 67.6847 6.528C67.7287 6.308 67.7873 6.11733 67.8607 5.956L70.4347 0.5H76.1547L72.1947 8.596L76.2867 17H70.5667L67.8607 11.082C67.7873 10.9207 67.7287 10.7373 67.6847 10.532C67.6407 10.3267 67.6113 10.092 67.5967 9.828Z" fill="#8338EC"/>
<path d="M59.5589 17H54.2789V0.5H59.5589V17Z" fill="#8338EC"/>
<path d="M52.2983 12.776V17H38.0643V13.7L44.8183 4.878L44.7523 4.724H39.2083L38.7243 0.5H52.1883V3.8L45.5003 12.622L45.5883 12.776H52.2983Z" fill="#8338EC"/>
<path d="M22.3224 0.5H27.6024V12.886H29.4724C30.1471 12.886 30.6017 12.798 30.8364 12.622C31.0857 12.446 31.2104 12.0647 31.2104 11.478V0.5H36.4904V9.762C36.4904 11.17 36.3951 12.358 36.2044 13.326C36.0284 14.294 35.6764 15.086 35.1484 15.702C34.6351 16.3033 33.9164 16.736 32.9924 17C32.0684 17.264 30.8731 17.396 29.4064 17.396C27.9397 17.396 26.7444 17.264 25.8204 17C24.8964 16.736 24.1704 16.3033 23.6424 15.702C23.1291 15.1007 22.7771 14.316 22.5864 13.348C22.4104 12.3653 22.3224 11.17 22.3224 9.762V0.5Z" fill="#8338EC"/>
<path d="M6.49003 8.992L6.18203 17H0.660034L1.67203 0.5H8.55803L10.604 8.904H10.802L12.848 0.5H19.756L20.746 17H15.224L14.916 8.992H14.74L12.716 17H8.69003L6.64403 8.992H6.49003Z" fill="#8338EC"/>
</svg>
